<svg width="21" height="21" viewBox="0 0 21 21" fill="none" xmlns="http://www.w3.org/2000/svg">
<g clip-path="url(#clip0_1_15421)">
<path d="M15.0047 0.619141H7.50465V13.9525H19.1713V4.78581C19.1713 3.68074 18.7323 2.62093 17.9509 1.83953C17.1695 1.05813 16.1097 0.619141 15.0047 0.619141V0.619141Z" fill="#F1F5F9"/>
<path d="M4.50049 14.0033C4.6664 13.9694 4.83531 13.9524 5.00465 13.9525H5.83799V0.702515C4.89685 0.894623 4.05099 1.406 3.44357 2.1501C2.83614 2.89419 2.50446 3.8253 2.50465 4.78585V14.8067C3.0872 14.3671 3.77588 14.0899 4.50049 14.0033Z" fill="#F1F5F9"/>
<path d="M19.1713 15.6191H5.00465C4.34161 15.6191 3.70573 15.8825 3.23689 16.3514C2.76805 16.8202 2.50465 17.4561 2.50465 18.1191C2.50465 18.7822 2.76805 19.4181 3.23689 19.8869C3.70573 20.3557 4.34161 20.6191 5.00465 20.6191H15.0047C15.5518 20.6191 16.0936 20.5114 16.5992 20.302C17.1047 20.0926 17.564 19.7857 17.9509 19.3988C18.3378 19.0118 18.6448 18.5525 18.8542 18.047C19.0635 17.5415 19.1713 16.9996 19.1713 16.4525V15.6191Z" fill="#F1F5F9"/>
</g>
<defs>
<clipPath id="clip0_1_15421">
<rect width="20" height="20" fill="white" transform="translate(0.83786 0.619141)"/>
</clipPath>
</defs>
</svg>
