<svg width="21" height="21" viewBox="0 0 21 21" fill="none" xmlns="http://www.w3.org/2000/svg">
<g clip-path="url(#clip0_1_15418)">
<path d="M11.8489 5.70667L8.32554 2.18417C8.09411 1.95112 7.81869 1.76636 7.51527 1.64061C7.21185 1.51487 6.88648 1.45064 6.55804 1.45167H0.998037C0.777023 1.45167 0.565061 1.53947 0.408781 1.69575C0.252501 1.85203 0.164703 2.06399 0.164703 2.28501C0.164703 2.50602 0.252501 2.71798 0.408781 2.87426C0.565061 3.03054 0.777023 3.11834 0.998037 3.11834H6.55804C6.77892 3.11893 6.99065 3.20668 7.1472 3.36251L9.40304 5.61834H4.33137C3.22671 5.61966 2.16767 6.05907 1.38655 6.84019C0.605438 7.6213 0.166027 8.68034 0.164703 9.78501L0.164703 16.4517C0.166027 17.5563 0.605438 18.6154 1.38655 19.3965C2.16767 20.1776 3.22671 20.617 4.33137 20.6183H10.998C12.1027 20.617 13.1617 20.1776 13.9429 19.3965C14.724 18.6154 15.1634 17.5563 15.1647 16.4517V9.78501C15.1633 8.82809 14.8332 7.90072 14.2295 7.15824C13.6258 6.41576 12.7854 5.90329 11.8489 5.70667V5.70667Z" fill="#E2E8F0"/>
<path d="M19.248 8.0824C18.9721 7.94258 18.6625 7.88283 18.3544 7.90993C18.0463 7.93703 17.7519 8.0499 17.5046 8.23573L16.838 8.73573V17.5041L17.5046 18.0041C17.7523 18.1898 18.0467 18.3029 18.355 18.3307C18.6632 18.3585 18.9732 18.2999 19.25 18.1614C19.5268 18.023 19.7597 17.8102 19.9224 17.547C20.0851 17.2837 20.1713 16.9803 20.1713 16.6707V9.5724C20.1721 9.26254 20.0861 8.95866 19.9229 8.69528C19.7596 8.43189 19.5258 8.21956 19.248 8.0824V8.0824Z" fill="#E2E8F0"/>
</g>
<defs>
<clipPath id="clip0_1_15418">
<rect width="20" height="20" fill="white" transform="translate(0.164703 0.619141)"/>
</clipPath>
</defs>
</svg>
