<svg width="17" height="17" viewBox="0 0 17 17" fill="none" xmlns="http://www.w3.org/2000/svg">
<g clip-path="url(#clip0_1_15477)">
<path d="M11.1666 5.95252C11.0416 5.82753 10.8721 5.75732 10.6953 5.75732C10.5185 5.75732 10.349 5.82753 10.2239 5.95252L8.49995 7.67652L6.77595 5.95252C6.65022 5.83108 6.48181 5.76388 6.30702 5.7654C6.13222 5.76692 5.96501 5.83703 5.84141 5.96064C5.7178 6.08424 5.64769 6.25145 5.64617 6.42625C5.64465 6.60105 5.71185 6.76945 5.83329 6.89518L7.55728 8.61918L5.83329 10.3432C5.71185 10.4689 5.64465 10.6373 5.64617 10.8121C5.64769 10.9869 5.7178 11.1541 5.84141 11.2777C5.96501 11.4013 6.13222 11.4714 6.30702 11.473C6.48181 11.4745 6.65022 11.4073 6.77595 11.2858L8.49995 9.56185L10.2239 11.2858C10.3497 11.4073 10.5181 11.4745 10.6929 11.473C10.8677 11.4714 11.0349 11.4013 11.1585 11.2777C11.2821 11.1541 11.3522 10.9869 11.3537 10.8121C11.3552 10.6373 11.288 10.4689 11.1666 10.3432L9.44261 8.61918L11.1666 6.89518C11.2916 6.77016 11.3618 6.60062 11.3618 6.42385C11.3618 6.24707 11.2916 6.07753 11.1666 5.95252Z" fill="white"/>
<path d="M8.5 0.619141C6.91775 0.619141 5.37103 1.08833 4.05544 1.96738C2.73984 2.84644 1.71446 4.09586 1.10896 5.55767C0.503461 7.01948 0.345034 8.62802 0.653716 10.1799C0.962397 11.7317 1.72432 13.1572 2.84314 14.276C3.96196 15.3948 5.38743 16.1567 6.93928 16.4654C8.49112 16.7741 10.0997 16.6157 11.5615 16.0102C13.0233 15.4047 14.2727 14.3793 15.1518 13.0637C16.0308 11.7481 16.5 10.2014 16.5 8.61914C16.4977 6.49811 15.6541 4.46461 14.1543 2.96482C12.6545 1.46503 10.621 0.621435 8.5 0.619141V0.619141ZM8.5 15.2858C7.18146 15.2858 5.89252 14.8948 4.7962 14.1623C3.69987 13.4297 2.84539 12.3885 2.3408 11.1704C1.83622 9.95219 1.70419 8.61175 1.96143 7.31854C2.21866 6.02533 2.8536 4.83745 3.78595 3.9051C4.7183 2.97275 5.90619 2.33781 7.1994 2.08057C8.4926 1.82334 9.83305 1.95536 11.0512 2.45994C12.2694 2.96453 13.3106 3.81901 14.0431 4.91534C14.7757 6.01167 15.1667 7.3006 15.1667 8.61914C15.1647 10.3867 14.4617 12.0812 13.2119 13.331C11.9621 14.5809 10.2675 15.2839 8.5 15.2858Z" fill="white"/>
</g>
<defs>
<clipPath id="clip0_1_15477">
<rect width="16" height="16" fill="white" transform="translate(0.5 0.619141)"/>
</clipPath>
</defs>
</svg>
