<svg width="16" height="17" viewBox="0 0 16 17" fill="none" xmlns="http://www.w3.org/2000/svg">
<g clip-path="url(#clip0_1_15439)">
<path d="M1.33334 12.2858H3C3.73637 12.2858 4.33334 12.8827 4.33334 13.6191V15.2858C4.33334 16.0222 3.73637 16.6191 3 16.6191H1.33334C0.596969 16.6191 0 16.0222 0 15.2858V13.6191C0 12.8827 0.596969 12.2858 1.33334 12.2858Z" fill="#F8FAFC"/>
<path d="M15.412 12.5138C15.192 12.3648 14.9323 12.2853 14.6667 12.2858H13C12.2636 12.2858 11.6667 12.8827 11.6667 13.6191V15.2858C11.6667 16.0222 12.2636 16.6191 13 16.6191H14.6667C15.4031 16.6191 16 16.0222 16 15.2858V13.6191C15.9999 13.1758 15.7796 12.7616 15.412 12.5138Z" fill="#F8FAFC"/>
<path d="M1.33334 6.45251H3C3.73637 6.45251 4.33334 7.04948 4.33334 7.78586V9.45252C4.33334 10.1889 3.73637 10.7859 3 10.7859H1.33334C0.596969 10.7858 0 10.1889 0 9.45252V7.78586C0 7.04945 0.596969 6.45251 1.33334 6.45251Z" fill="#F8FAFC"/>
<path d="M15.412 6.68039C15.192 6.53139 14.9323 6.45196 14.6667 6.45239H13C12.2636 6.45239 11.6667 7.04936 11.6667 7.78574V9.4524C11.6667 10.1888 12.2636 10.7857 13 10.7857H14.6667C15.403 10.7857 16 10.1888 16 9.4524V7.78574C15.9999 7.34243 15.7796 6.92818 15.412 6.68039Z" fill="#F8FAFC"/>
<path d="M1.33334 0.619141H3C3.73637 0.619141 4.33334 1.21611 4.33334 1.95248V3.61914C4.33334 4.35552 3.73637 4.95248 3 4.95248H1.33334C0.596969 4.95248 0 4.35552 0 3.61914V1.95248C0 1.21611 0.596969 0.619141 1.33334 0.619141Z" fill="#F8FAFC"/>
<path d="M9.57865 12.5138C9.35868 12.3648 9.099 12.2853 8.83331 12.2858H7.16665C6.43027 12.2858 5.8333 12.8827 5.8333 13.6191V15.2858C5.8333 16.0221 6.43027 16.6191 7.16665 16.6191H8.83331C9.56968 16.6191 10.1667 16.0222 10.1667 15.2858V13.6191C10.1666 13.1758 9.94622 12.7616 9.57865 12.5138Z" fill="#F8FAFC"/>
<path d="M9.57865 6.68039C9.35868 6.53139 9.099 6.45196 8.83331 6.45239H7.16665C6.43027 6.45239 5.8333 7.04936 5.8333 7.78574V9.4524C5.8333 10.1888 6.43027 10.7857 7.16665 10.7857H8.83331C9.56968 10.7857 10.1667 10.1888 10.1667 9.4524V7.78574C10.1666 7.34243 9.94622 6.92818 9.57865 6.68039Z" fill="#F8FAFC"/>
<path d="M9.57865 0.847142C9.35868 0.698142 9.099 0.618705 8.83331 0.619142H7.16665C6.43027 0.619142 5.8333 1.21611 5.8333 1.95249V3.61914C5.8333 4.35552 6.43027 4.95249 7.16665 4.95249H8.83331C9.56968 4.95249 10.1667 4.35552 10.1667 3.61914V1.95249C10.1666 1.5092 9.94622 1.09492 9.57865 0.847142Z" fill="#F8FAFC"/>
<path d="M15.772 1.20714C15.5242 0.839578 15.1099 0.619203 14.6667 0.619141H13C12.2636 0.619141 11.6667 1.21611 11.6667 1.95248V3.61914C11.6667 4.35552 12.2636 4.95248 13 4.95248H14.6667C15.4031 4.95248 16 4.35552 16 3.61914V1.95248C16.0004 1.6868 15.921 1.42711 15.772 1.20714Z" fill="#F8FAFC"/>
</g>
<defs>
<clipPath id="clip0_1_15439">
<rect width="16" height="16" fill="white" transform="translate(0 0.619141)"/>
</clipPath>
</defs>
</svg>
