<svg width="16" height="17" viewBox="0 0 16 17" fill="none" xmlns="http://www.w3.org/2000/svg">
<g clip-path="url(#clip0_1_15440)">
<path d="M4.66667 4.61934H15.3333C15.5101 4.61934 15.6797 4.5491 15.8047 4.42408C15.9298 4.29906 16 4.12949 16 3.95268C16 3.77587 15.9298 3.6063 15.8047 3.48127C15.6797 3.35625 15.5101 3.28601 15.3333 3.28601H4.66667C4.48986 3.28601 4.32029 3.35625 4.19526 3.48127C4.07024 3.6063 4 3.77587 4 3.95268C4 4.12949 4.07024 4.29906 4.19526 4.42408C4.32029 4.5491 4.48986 4.61934 4.66667 4.61934Z" fill="#10B981"/>
<path d="M15.3333 7.95227H4.66667C4.48986 7.95227 4.32029 8.02251 4.19526 8.14753C4.07024 8.27256 4 8.44213 4 8.61894C4 8.79575 4.07024 8.96532 4.19526 9.09035C4.32029 9.21537 4.48986 9.28561 4.66667 9.28561H15.3333C15.5101 9.28561 15.6797 9.21537 15.8047 9.09035C15.9298 8.96532 16 8.79575 16 8.61894C16 8.44213 15.9298 8.27256 15.8047 8.14753C15.6797 8.02251 15.5101 7.95227 15.3333 7.95227Z" fill="#10B981"/>
<path d="M15.3333 12.6191H4.66667C4.48986 12.6191 4.32029 12.6894 4.19526 12.8144C4.07024 12.9394 4 13.109 4 13.2858C4 13.4626 4.07024 13.6322 4.19526 13.7572C4.32029 13.8822 4.48986 13.9525 4.66667 13.9525H15.3333C15.5101 13.9525 15.6797 13.8822 15.8047 13.7572C15.9298 13.6322 16 13.4626 16 13.2858C16 13.109 15.9298 12.9394 15.8047 12.8144C15.6797 12.6894 15.5101 12.6191 15.3333 12.6191Z" fill="#10B981"/>
<path d="M1.33333 5.2858C2.06971 5.2858 2.66666 4.68885 2.66666 3.95247C2.66666 3.21609 2.06971 2.61914 1.33333 2.61914C0.596946 2.61914 -7.62939e-06 3.21609 -7.62939e-06 3.95247C-7.62939e-06 4.68885 0.596946 5.2858 1.33333 5.2858Z" fill="#10B981"/>
<path d="M1.33333 9.95267C2.06971 9.95267 2.66666 9.35572 2.66666 8.61934C2.66666 7.88296 2.06971 7.28601 1.33333 7.28601C0.596946 7.28601 -7.62939e-06 7.88296 -7.62939e-06 8.61934C-7.62939e-06 9.35572 0.596946 9.95267 1.33333 9.95267Z" fill="#10B981"/>
<path d="M1.33333 14.6189C2.06971 14.6189 2.66666 14.022 2.66666 13.2856C2.66666 12.5492 2.06971 11.9523 1.33333 11.9523C0.596946 11.9523 -7.62939e-06 12.5492 -7.62939e-06 13.2856C-7.62939e-06 14.022 0.596946 14.6189 1.33333 14.6189Z" fill="#10B981"/>
</g>
<defs>
<clipPath id="clip0_1_15440">
<rect width="16" height="16" fill="white" transform="translate(0 0.619141)"/>
</clipPath>
</defs>
</svg>
