<svg width="17" height="17" viewBox="0 0 17 17" fill="none" xmlns="http://www.w3.org/2000/svg">
<g clip-path="url(#clip0_1_15478)">
<path d="M15.7354 1.38444C15.2822 0.931908 14.6679 0.677734 14.0274 0.677734C13.387 0.677734 12.7727 0.931908 12.3194 1.38444L1.47677 12.2271C1.16627 12.5359 0.920076 12.9031 0.752434 13.3076C0.584791 13.7122 0.499026 14.1459 0.500102 14.5838V15.9524C0.500102 16.1293 0.570339 16.2988 0.695364 16.4238C0.820388 16.5489 0.989957 16.6191 1.16677 16.6191H2.53543C2.97328 16.6203 3.40701 16.5347 3.81154 16.3672C4.21606 16.1997 4.58334 15.9535 4.8921 15.6431L15.7354 4.79978C16.1878 4.34657 16.4418 3.73242 16.4418 3.09211C16.4418 2.4518 16.1878 1.83765 15.7354 1.38444ZM3.94943 14.7004C3.57344 15.0739 3.06541 15.2842 2.53543 15.2858H1.83343V14.5838C1.83276 14.321 1.88421 14.0608 1.98479 13.8181C2.08538 13.5754 2.23311 13.355 2.41943 13.1698L10.6481 4.94111L12.1814 6.47444L3.94943 14.7004ZM14.7921 3.85711L13.1214 5.52844L11.5881 3.99844L13.2594 2.32711C13.3601 2.22665 13.4796 2.147 13.6111 2.09272C13.7425 2.03843 13.8834 2.01057 14.0256 2.01072C14.1678 2.01088 14.3086 2.03905 14.44 2.09362C14.5713 2.14819 14.6906 2.2281 14.7911 2.32878C14.8916 2.42946 14.9712 2.54894 15.0255 2.6804C15.0798 2.81186 15.1076 2.95273 15.1075 3.09495C15.1073 3.23718 15.0792 3.37799 15.0246 3.50933C14.97 3.64067 14.8901 3.75998 14.7894 3.86044L14.7921 3.85711Z" fill="white"/>
</g>
<defs>
<clipPath id="clip0_1_15478">
<rect width="16" height="16" fill="white" transform="translate(0.5 0.619141)"/>
</clipPath>
</defs>
</svg>
